{
    "asset" : {
        "generator" : "Khronos glTF Blender I/O v1.8.19",
        "version" : "2.0"
    },
    "scene" : 0,
    "scenes" : [
        {
            "name" : "Scene",
            "nodes" : [
                11
            ]
        }
    ],
    "nodes" : [
        {
            "name" : "trunc_3",
            "rotation" : [
                1.2008884198166925e-07,
                6.767509574956421e-08,
                -0.5036892294883728,
                0.8638849854469299
            ],
            "scale" : [
                0.9999999403953552,
                1,
                1
            ],
            "translation" : [
                0,
                1.700000286102295,
                0
            ]
        },
        {
            "name" : "Bone.007",
            "rotation" : [
                1.3006206245336216e-07,
                1.6309844141915164e-08,
                -0.2776707410812378,
                0.9606763124465942
            ],
            "scale" : [
                1.0000001192092896,
                1.000000238418579,
                1
            ],
            "translation" : [
                -3.3970931667681725e-07,
                1.7000006437301636,
                1.9178094442379168e-13
            ]
        },
        {
            "children" : [
                0,
                1
            ],
            "name" : "trunc_2",
            "rotation" : [
                1.2207152622067952e-07,
                6.87923673581281e-08,
                -0.5120051503181458,
                0.8589823842048645
            ],
            "scale" : [
                0.9999998807907104,
                0.9999999403953552,
                1
            ],
            "translation" : [
                0,
                1.7999999523162842,
                2.842170943040401e-14
            ]
        },
        {
            "name" : "leaf_1_0",
            "rotation" : [
                -4.5891130895370225e-08,
                -1.1658880083587064e-08,
                0.2039041370153427,
                0.9789909720420837
            ],
            "scale" : [
                1,
                1.0000001192092896,
                1
            ],
            "translation" : [
                1.1920926823449918e-07,
                1.3713040351867676,
                -1.4210854715202004e-14
            ]
        },
        {
            "children" : [
                3
            ],
            "name" : "branch_1_0",
            "rotation" : [
                -2.9613383745186184e-08,
                -2.6557511745295415e-08,
                0.3853831887245178,
                0.9227566123008728
            ],
            "translation" : [
                0,
                1.7999999523162842,
                0
            ]
        },
        {
            "name" : "branch_1_1",
            "rotation" : [
                1.5121327123779338e-07,
                3.5902260719922197e-08,
                -0.3510206937789917,
                0.9363676905632019
            ],
            "translation" : [
                0,
                1.7999999523162842,
                0
            ]
        },
        {
            "children" : [
                2,
                4,
                5
            ],
            "name" : "trunc_1",
            "rotation" : [
                2.271398713560302e-08,
                1.4262585068536282e-07,
                -0.19053871929645538,
                0.9816796779632568
            ],
            "translation" : [
                0,
                1.8199999332427979,
                0
            ]
        },
        {
            "name" : "leaf_0_1",
            "rotation" : [
                6.086682446948544e-08,
                1.8465661355548946e-07,
                -0.2954137325286865,
                0.9553695321083069
            ],
            "scale" : [
                1.0000001192092896,
                1.0000001192092896,
                1
            ],
            "translation" : [
                2.5641000434006855e-07,
                2.014747381210327,
                -1.2911063006475904e-13
            ]
        },
        {
            "children" : [
                7
            ],
            "name" : "branch_0",
            "rotation" : [
                6.667468710475077e-08,
                2.2765334506402723e-08,
                -0.24686981737613678,
                0.9690486788749695
            ],
            "translation" : [
                0,
                1.8199999332427979,
                0
            ]
        },
        {
            "children" : [
                6,
                8
            ],
            "name" : "root_bone",
            "translation" : [
                0,
                0.18000000715255737,
                0
            ]
        },
        {
            "mesh" : 0,
            "name" : "Cube",
            "skin" : 0
        },
        {
            "children" : [
                10,
                9
            ],
            "name" : "Armature"
        }
    ],
    "meshes" : [
        {
            "name" : "Cube.001",
            "primitives" : [
                {
                    "attributes" : {
                        "POSITION" : 0,
                        "NORMAL" : 1,
                        "TEXCOORD_0" : 2,
                        "JOINTS_0" : 3,
                        "WEIGHTS_0" : 4
                    },
                    "indices" : 5
                }
            ]
        }
    ],
    "skins" : [
        {
            "inverseBindMatrices" : 6,
            "joints" : [
                9,
                6,
                2,
                0,
                1,
                4,
                3,
                5,
                8,
                7
            ],
            "name" : "Armature"
        }
    ],
    "accessors" : [
        {
            "bufferView" : 0,
            "componentType" : 5126,
            "count" : 48,
            "max" : [
                1,
                7.062924385070801,
                1
            ],
            "min" : [
                -1,
                0.0002982616424560547,
                -1
            ],
            "type" : "VEC3"
        },
        {
            "bufferView" : 1,
            "componentType" : 5126,
            "count" : 48,
            "type" : "VEC3"
        },
        {
            "bufferView" : 2,
            "componentType" : 5126,
            "count" : 48,
            "type" : "VEC2"
        },
        {
            "bufferView" : 3,
            "componentType" : 5121,
            "count" : 48,
            "type" : "VEC4"
        },
        {
            "bufferView" : 4,
            "componentType" : 5126,
            "count" : 48,
            "type" : "VEC4"
        },
        {
            "bufferView" : 5,
            "componentType" : 5123,
            "count" : 108,
            "type" : "SCALAR"
        },
        {
            "bufferView" : 6,
            "componentType" : 5126,
            "count" : 10,
            "type" : "MAT4"
        }
    ],
    "bufferViews" : [
        {
            "buffer" : 0,
            "byteLength" : 576,
            "byteOffset" : 0
        },
        {
            "buffer" : 0,
            "byteLength" : 576,
            "byteOffset" : 576
        },
        {
            "buffer" : 0,
            "byteLength" : 384,
            "byteOffset" : 1152
        },
        {
            "buffer" : 0,
            "byteLength" : 192,
            "byteOffset" : 1536
        },
        {
            "buffer" : 0,
            "byteLength" : 768,
            "byteOffset" : 1728
        },
        {
            "buffer" : 0,
            "byteLength" : 216,
            "byteOffset" : 2496
        },
        {
            "buffer" : 0,
            "byteLength" : 640,
            "byteOffset" : 2712
        }
    ],
    "buffers" : [
        {
            "byteLength" : 3352,
            "uri" : "skinned_cube.bin"
        }
    ]
}
